<svg id="visual" viewBox="0 0 900 600" width="900" height="600" xmlns="http://www.w3.org/2000/svg"
    xmlns:xlink="http://www.w3.org/1999/xlink" version="1.1">
    <g stroke-width="1" stroke-linejoin="bevel">
        <path d="M444 301L450 263.1L413 296Z" fill="#014634" stroke="#014634"></path>
        <path d="M450 263.1L402 255.1L413 296Z" fill="#004034" stroke="#004034"></path>
        <path d="M450 263.1L447 219.3L402 255.1Z" fill="#004034" stroke="#004034"></path>
        <path d="M444 301L491 306L450 263.1Z" fill="#0d191d" stroke="#0d191d"></path>
        <path d="M450 263.1L500 254.1L447 219.3Z" fill="#004034" stroke="#004034"></path>
        <path d="M410 347.9L457 343.9L444 301Z" fill="#003b34" stroke="#003b34"></path>
        <path d="M444 301L486 334.9L491 306Z" fill="#003532" stroke="#003532"></path>
        <path d="M359 341.9L410 347.9L413 296Z" fill="#004034" stroke="#004034"></path>
        <path d="M413 296L410 347.9L444 301Z" fill="#0c1f22" stroke="#0c1f22"></path>
        <path d="M491 306L500 254.1L450 263.1Z" fill="#014634" stroke="#014634"></path>
        <path d="M457 343.9L486 334.9L444 301Z" fill="#082428" stroke="#082428"></path>
        <path d="M491 306L536 292L500 254.1Z" fill="#0d1416" stroke="#0d1416"></path>
        <path d="M354 219.3L354 258.1L402 255.1Z" fill="#042a2c" stroke="#042a2c"></path>
        <path d="M402 255.1L354 303L413 296Z" fill="#00302f" stroke="#00302f"></path>
        <path d="M354 258.1L354 303L402 255.1Z" fill="#00302f" stroke="#00302f"></path>
        <path d="M447 219.3L396 205.3L402 255.1Z" fill="#0c1f22" stroke="#0c1f22"></path>
        <path d="M354 303L359 341.9L413 296Z" fill="#004034" stroke="#004034"></path>
        <path d="M396 205.3L354 219.3L402 255.1Z" fill="#003b34" stroke="#003b34"></path>
        <path d="M500 254.1L502 209.3L447 219.3Z" fill="#003b34" stroke="#003b34"></path>
        <path d="M447 219.3L405 176.4L396 205.3Z" fill="#082428" stroke="#082428"></path>
        <path d="M410 347.9L457 380.7L457 343.9Z" fill="#014634" stroke="#014634"></path>
        <path d="M457 343.9L499 375.7L486 334.9Z" fill="#0d191d" stroke="#0d191d"></path>
        <path d="M397 394.7L457 380.7L410 347.9Z" fill="#00302f" stroke="#00302f"></path>
        <path d="M535 333.9L491 306L486 334.9Z" fill="#014634" stroke="#014634"></path>
        <path d="M535 333.9L536 292L491 306Z" fill="#00302f" stroke="#00302f"></path>
        <path d="M500 254.1L532 218.3L502 209.3Z" fill="#042a2c" stroke="#042a2c"></path>
        <path d="M444 161.4L405 176.4L447 219.3Z" fill="#0c1f22" stroke="#0c1f22"></path>
        <path d="M396 205.3L361 176.4L354 219.3Z" fill="#0b0d0e" stroke="#0b0d0e"></path>
        <path d="M536 292L541 254.1L500 254.1Z" fill="#082428" stroke="#082428"></path>
        <path d="M499 375.7L535 333.9L486 334.9Z" fill="#0c1f22" stroke="#0c1f22"></path>
        <path d="M536 292L576 253.1L541 254.1Z" fill="#003b34" stroke="#003b34"></path>
        <path d="M457 380.7L499 375.7L457 343.9Z" fill="#0c1f22" stroke="#0c1f22"></path>
        <path d="M541 254.1L532 218.3L500 254.1Z" fill="#042a2c" stroke="#042a2c"></path>
        <path d="M502 209.3L491 177.4L447 219.3Z" fill="#042a2c" stroke="#042a2c"></path>
        <path d="M539 176.4L491 177.4L502 209.3Z" fill="#0b0d0e" stroke="#0b0d0e"></path>
        <path d="M491 177.4L444 161.4L447 219.3Z" fill="#014634" stroke="#014634"></path>
        <path d="M354 219.3L315 256.1L354 258.1Z" fill="#0d191d" stroke="#0d191d"></path>
        <path d="M354 258.1L309 293L354 303Z" fill="#00302f" stroke="#00302f"></path>
        <path d="M354 303L307 341.9L359 341.9Z" fill="#003532" stroke="#003532"></path>
        <path d="M359 341.9L397 394.7L410 347.9Z" fill="#003532" stroke="#003532"></path>
        <path d="M457 380.7L453 418.6L499 375.7Z" fill="#0d191d" stroke="#0d191d"></path>
        <path d="M315 256.1L309 293L354 258.1Z" fill="#0d191d" stroke="#0d191d"></path>
        <path d="M359 341.9L357 388.7L397 394.7Z" fill="#003532" stroke="#003532"></path>
        <path d="M356 136.6L361 176.4L405 176.4Z" fill="#0b0d0e" stroke="#0b0d0e"></path>
        <path d="M405 176.4L361 176.4L396 205.3Z" fill="#0d1416" stroke="#0d1416"></path>
        <path d="M354 219.3L323 205.3L315 256.1Z" fill="#082428" stroke="#082428"></path>
        <path d="M361 176.4L323 205.3L354 219.3Z" fill="#00302f" stroke="#00302f"></path>
        <path d="M275 257.1L277 309L309 293Z" fill="#0d191d" stroke="#0d191d"></path>
        <path d="M317 382.7L357 388.7L359 341.9Z" fill="#0d191d" stroke="#0d191d"></path>
        <path d="M309 293L307 341.9L354 303Z" fill="#0b0d0e" stroke="#0b0d0e"></path>
        <path d="M401 422.6L453 418.6L397 394.7Z" fill="#0d191d" stroke="#0d191d"></path>
        <path d="M397 394.7L453 418.6L457 380.7Z" fill="#003b34" stroke="#003b34"></path>
        <path d="M354 424.6L401 422.6L397 394.7Z" fill="#0c1f22" stroke="#0c1f22"></path>
        <path d="M588 290L576 253.1L536 292Z" fill="#082428" stroke="#082428"></path>
        <path d="M541 254.1L576 253.1L532 218.3Z" fill="#042a2c" stroke="#042a2c"></path>
        <path d="M532 218.3L539 176.4L502 209.3Z" fill="#0d191d" stroke="#0d191d"></path>
        <path d="M583 210.3L539 176.4L532 218.3Z" fill="#042a2c" stroke="#042a2c"></path>
        <path d="M491 177.4L454 119.6L444 161.4Z" fill="#003b34" stroke="#003b34"></path>
        <path d="M504 428.6L532 391.7L499 375.7Z" fill="#042a2c" stroke="#042a2c"></path>
        <path d="M499 375.7L532 391.7L535 333.9Z" fill="#0d191d" stroke="#0d191d"></path>
        <path d="M535 333.9L588 290L536 292Z" fill="#082428" stroke="#082428"></path>
        <path d="M307 341.9L317 382.7L359 341.9Z" fill="#0c1f22" stroke="#0c1f22"></path>
        <path d="M357 388.7L354 424.6L397 394.7Z" fill="#0b0d0e" stroke="#0b0d0e"></path>
        <path d="M594 334.9L588 290L535 333.9Z" fill="#003b34" stroke="#003b34"></path>
        <path d="M275 257.1L309 293L315 256.1Z" fill="#004034" stroke="#004034"></path>
        <path d="M309 293L277 309L307 341.9Z" fill="#00302f" stroke="#00302f"></path>
        <path d="M307 341.9L267 382.7L317 382.7Z" fill="#0d1416" stroke="#0d1416"></path>
        <path d="M275 205.3L275 257.1L315 256.1Z" fill="#0c1f22" stroke="#0c1f22"></path>
        <path d="M503 123.6L454 119.6L491 177.4Z" fill="#042a2c" stroke="#042a2c"></path>
        <path d="M444 161.4L401 120.6L405 176.4Z" fill="#082428" stroke="#082428"></path>
        <path d="M401 120.6L356 136.6L405 176.4Z" fill="#042a2c" stroke="#042a2c"></path>
        <path d="M361 176.4L306 166.4L323 205.3Z" fill="#003b34" stroke="#003b34"></path>
        <path d="M323 205.3L275 205.3L315 256.1Z" fill="#042a2c" stroke="#042a2c"></path>
        <path d="M454 119.6L401 120.6L444 161.4Z" fill="#00302f" stroke="#00302f"></path>
        <path d="M314 423.6L354 424.6L357 388.7Z" fill="#0b0d0e" stroke="#0b0d0e"></path>
        <path d="M504 462.4L504 428.6L453 418.6Z" fill="#004034" stroke="#004034"></path>
        <path d="M453 418.6L504 428.6L499 375.7Z" fill="#003532" stroke="#003532"></path>
        <path d="M534 435.6L504 428.6L504 462.4Z" fill="#003b34" stroke="#003b34"></path>
        <path d="M633 222.3L583 210.3L576 253.1Z" fill="#0c1f22" stroke="#0c1f22"></path>
        <path d="M576 253.1L583 210.3L532 218.3Z" fill="#042a2c" stroke="#042a2c"></path>
        <path d="M223 300L274 339.9L277 309Z" fill="#014634" stroke="#014634"></path>
        <path d="M277 309L274 339.9L307 341.9Z" fill="#004034" stroke="#004034"></path>
        <path d="M317 382.7L314 423.6L357 388.7Z" fill="#0d1416" stroke="#0d1416"></path>
        <path d="M356 136.6L306 166.4L361 176.4Z" fill="#003532" stroke="#003532"></path>
        <path d="M583 381.7L535 333.9L532 391.7Z" fill="#014634" stroke="#014634"></path>
        <path d="M583 381.7L594 334.9L535 333.9Z" fill="#042a2c" stroke="#042a2c"></path>
        <path d="M588 290L633 251.1L576 253.1Z" fill="#004034" stroke="#004034"></path>
        <path d="M539 176.4L503 123.6L491 177.4Z" fill="#0c1f22" stroke="#0c1f22"></path>
        <path d="M546 121.6L503 123.6L539 176.4Z" fill="#0c1f22" stroke="#0c1f22"></path>
        <path d="M306 166.4L275 205.3L323 205.3Z" fill="#00302f" stroke="#00302f"></path>
        <path d="M229 350.9L267 382.7L274 339.9Z" fill="#004034" stroke="#004034"></path>
        <path d="M583 210.3L577 173.4L539 176.4Z" fill="#014634" stroke="#014634"></path>
        <path d="M583 421.6L583 381.7L532 391.7Z" fill="#003b34" stroke="#003b34"></path>
        <path d="M267 382.7L314 423.6L317 382.7Z" fill="#004034" stroke="#004034"></path>
        <path d="M447 466.4L453 418.6L401 422.6Z" fill="#0d191d" stroke="#0d191d"></path>
        <path d="M447 466.4L401 422.6L397 478.4Z" fill="#0d191d" stroke="#0d191d"></path>
        <path d="M504 428.6L534 435.6L532 391.7Z" fill="#00302f" stroke="#00302f"></path>
        <path d="M397 478.4L401 422.6L356 469.4Z" fill="#082428" stroke="#082428"></path>
        <path d="M306 166.4L266 180.4L275 205.3Z" fill="#00302f" stroke="#00302f"></path>
        <path d="M227 220.3L227 250.1L275 257.1Z" fill="#0c1f22" stroke="#0c1f22"></path>
        <path d="M260 135.6L266 180.4L306 166.4Z" fill="#003b34" stroke="#003b34"></path>
        <path d="M503 85.7L458 87.7L503 123.6Z" fill="#082428" stroke="#082428"></path>
        <path d="M503 123.6L458 87.7L454 119.6Z" fill="#0b0d0e" stroke="#0b0d0e"></path>
        <path d="M454 119.6L403 87.7L401 120.6Z" fill="#003532" stroke="#003532"></path>
        <path d="M401 120.6L350 77.7L356 136.6Z" fill="#0d191d" stroke="#0d191d"></path>
        <path d="M458 87.7L403 87.7L454 119.6Z" fill="#0b0d0e" stroke="#0b0d0e"></path>
        <path d="M356 136.6L308 120.6L306 166.4Z" fill="#042a2c" stroke="#042a2c"></path>
        <path d="M223 300L277 309L275 257.1Z" fill="#0b0d0e" stroke="#0b0d0e"></path>
        <path d="M274 339.9L267 382.7L307 341.9Z" fill="#0c1f22" stroke="#0c1f22"></path>
        <path d="M634 337.9L626 294L594 334.9Z" fill="#003532" stroke="#003532"></path>
        <path d="M594 334.9L626 294L588 290Z" fill="#003b34" stroke="#003b34"></path>
        <path d="M583 210.3L632 178.4L577 173.4Z" fill="#0d191d" stroke="#0d191d"></path>
        <path d="M577 173.4L546 121.6L539 176.4Z" fill="#004034" stroke="#004034"></path>
        <path d="M447 466.4L504 462.4L453 418.6Z" fill="#0d1416" stroke="#0d1416"></path>
        <path d="M350 77.7L308 120.6L356 136.6Z" fill="#0c1f22" stroke="#0c1f22"></path>
        <path d="M356 469.4L401 422.6L354 424.6Z" fill="#003b34" stroke="#003b34"></path>
        <path d="M493 508.3L536 475.4L504 462.4Z" fill="#003b34" stroke="#003b34"></path>
        <path d="M626 294L633 251.1L588 290Z" fill="#042a2c" stroke="#042a2c"></path>
        <path d="M577 173.4L589 130.6L546 121.6Z" fill="#0c1f22" stroke="#0c1f22"></path>
        <path d="M314 423.6L356 469.4L354 424.6Z" fill="#004034" stroke="#004034"></path>
        <path d="M305 467.4L356 469.4L314 423.6Z" fill="#0c1f22" stroke="#0c1f22"></path>
        <path d="M547 91.7L503 85.7L503 123.6Z" fill="#0b0d0e" stroke="#0b0d0e"></path>
        <path d="M352 38.9L350 77.7L403 87.7Z" fill="#003b34" stroke="#003b34"></path>
        <path d="M227 220.3L275 257.1L275 205.3Z" fill="#004034" stroke="#004034"></path>
        <path d="M589 468.4L583 421.6L534 435.6Z" fill="#0d1416" stroke="#0d1416"></path>
        <path d="M534 435.6L583 421.6L532 391.7Z" fill="#014634" stroke="#014634"></path>
        <path d="M620 377.7L634 337.9L594 334.9Z" fill="#0b0d0e" stroke="#0b0d0e"></path>
        <path d="M633 251.1L633 222.3L576 253.1Z" fill="#003532" stroke="#003532"></path>
        <path d="M227 250.1L223 300L275 257.1Z" fill="#014634" stroke="#014634"></path>
        <path d="M620 377.7L594 334.9L583 381.7Z" fill="#082428" stroke="#082428"></path>
        <path d="M626 294L672 257.1L633 251.1Z" fill="#003b34" stroke="#003b34"></path>
        <path d="M633 251.1L672 257.1L633 222.3Z" fill="#0b0d0e" stroke="#0b0d0e"></path>
        <path d="M583 421.6L620 377.7L583 381.7Z" fill="#003532" stroke="#003532"></path>
        <path d="M220 169.4L227 220.3L266 180.4Z" fill="#004034" stroke="#004034"></path>
        <path d="M266 180.4L227 220.3L275 205.3Z" fill="#0b0d0e" stroke="#0b0d0e"></path>
        <path d="M173 261.1L179 309L223 300Z" fill="#082428" stroke="#082428"></path>
        <path d="M223 300L229 350.9L274 339.9Z" fill="#0b0d0e" stroke="#0b0d0e"></path>
        <path d="M267 382.7L261 420.6L314 423.6Z" fill="#0d1416" stroke="#0d1416"></path>
        <path d="M629 137.6L589 130.6L577 173.4Z" fill="#0d1416" stroke="#0d1416"></path>
        <path d="M546 121.6L547 91.7L503 123.6Z" fill="#003b34" stroke="#003b34"></path>
        <path d="M441 43.9L403 87.7L458 87.7Z" fill="#003b34" stroke="#003b34"></path>
        <path d="M403 87.7L350 77.7L401 120.6Z" fill="#0b0d0e" stroke="#0b0d0e"></path>
        <path d="M586 87.7L547 91.7L546 121.6Z" fill="#004034" stroke="#004034"></path>
        <path d="M229 386.7L261 420.6L267 382.7Z" fill="#0c1f22" stroke="#0c1f22"></path>
        <path d="M504 462.4L536 475.4L534 435.6Z" fill="#003532" stroke="#003532"></path>
        <path d="M493 508.3L504 462.4L447 466.4Z" fill="#00302f" stroke="#00302f"></path>
        <path d="M266 85.7L260 135.6L308 120.6Z" fill="#042a2c" stroke="#042a2c"></path>
        <path d="M308 120.6L260 135.6L306 166.4Z" fill="#003b34" stroke="#003b34"></path>
        <path d="M633 222.3L632 178.4L583 210.3Z" fill="#00302f" stroke="#00302f"></path>
        <path d="M279 461.4L305 467.4L314 423.6Z" fill="#004034" stroke="#004034"></path>
        <path d="M402 523.3L447 514.3L397 478.4Z" fill="#0d191d" stroke="#0d191d"></path>
        <path d="M182 351.9L229 386.7L229 350.9Z" fill="#0d1416" stroke="#0d1416"></path>
        <path d="M229 350.9L229 386.7L267 382.7Z" fill="#00302f" stroke="#00302f"></path>
        <path d="M261 420.6L279 461.4L314 423.6Z" fill="#0d191d" stroke="#0d191d"></path>
        <path d="M350 77.7L311 79.7L308 120.6Z" fill="#00302f" stroke="#00302f"></path>
        <path d="M356 505.3L397 478.4L356 469.4Z" fill="#0b0d0e" stroke="#0b0d0e"></path>
        <path d="M397 478.4L447 514.3L447 466.4Z" fill="#0c1f22" stroke="#0c1f22"></path>
        <path d="M498 51.9L458 87.7L503 85.7Z" fill="#0c1f22" stroke="#0c1f22"></path>
        <path d="M498 51.9L441 43.9L458 87.7Z" fill="#0d191d" stroke="#0d191d"></path>
        <path d="M350 77.7L315 48.9L311 79.7Z" fill="#0d1416" stroke="#0d1416"></path>
        <path d="M447 514.3L493 508.3L447 466.4Z" fill="#0d191d" stroke="#0d191d"></path>
        <path d="M539 37.9L498 51.9L503 85.7Z" fill="#004034" stroke="#004034"></path>
        <path d="M233 461.4L279 461.4L261 420.6Z" fill="#082428" stroke="#082428"></path>
        <path d="M317 508.3L356 505.3L356 469.4Z" fill="#0b0d0e" stroke="#0b0d0e"></path>
        <path d="M317 508.3L356 469.4L305 467.4Z" fill="#042a2c" stroke="#042a2c"></path>
        <path d="M260 135.6L220 169.4L266 180.4Z" fill="#00302f" stroke="#00302f"></path>
        <path d="M173 261.1L223 300L227 250.1Z" fill="#003532" stroke="#003532"></path>
        <path d="M234 123.6L220 169.4L260 135.6Z" fill="#004034" stroke="#004034"></path>
        <path d="M684 350.9L671 303L634 337.9Z" fill="#0b0d0e" stroke="#0b0d0e"></path>
        <path d="M634 337.9L671 303L626 294Z" fill="#003b34" stroke="#003b34"></path>
        <path d="M633 222.3L681 221.3L632 178.4Z" fill="#0d1416" stroke="#0d1416"></path>
        <path d="M671 303L672 257.1L626 294Z" fill="#0d1416" stroke="#0d1416"></path>
        <path d="M440 0L414 37.9L441 43.9Z" fill="#004034" stroke="#004034"></path>
        <path d="M441 43.9L414 37.9L403 87.7Z" fill="#0d1416" stroke="#0d1416"></path>
        <path d="M681 173.4L629 137.6L632 178.4Z" fill="#0d1416" stroke="#0d1416"></path>
        <path d="M632 178.4L629 137.6L577 173.4Z" fill="#003b34" stroke="#003b34"></path>
        <path d="M589 130.6L586 87.7L546 121.6Z" fill="#0d191d" stroke="#0d191d"></path>
        <path d="M547 91.7L539 37.9L503 85.7Z" fill="#014634" stroke="#014634"></path>
        <path d="M356 505.3L402 523.3L397 478.4Z" fill="#014634" stroke="#014634"></path>
        <path d="M543 550.1L547 506.3L493 508.3Z" fill="#0d191d" stroke="#0d191d"></path>
        <path d="M547 506.3L589 468.4L536 475.4Z" fill="#003532" stroke="#003532"></path>
        <path d="M536 475.4L589 468.4L534 435.6Z" fill="#00302f" stroke="#00302f"></path>
        <path d="M583 421.6L635 437.6L620 377.7Z" fill="#0d1416" stroke="#0d1416"></path>
        <path d="M682 381.7L684 350.9L634 337.9Z" fill="#004034" stroke="#004034"></path>
        <path d="M622 75.7L586 87.7L589 130.6Z" fill="#00302f" stroke="#00302f"></path>
        <path d="M266 85.7L234 123.6L260 135.6Z" fill="#00302f" stroke="#00302f"></path>
        <path d="M414 37.9L352 38.9L403 87.7Z" fill="#0c1f22" stroke="#0c1f22"></path>
        <path d="M311 79.7L266 85.7L308 120.6Z" fill="#042a2c" stroke="#042a2c"></path>
        <path d="M173 261.1L227 250.1L176 208.3Z" fill="#003532" stroke="#003532"></path>
        <path d="M223 300L179 309L229 350.9Z" fill="#0b0d0e" stroke="#0b0d0e"></path>
        <path d="M493 508.3L547 506.3L536 475.4Z" fill="#003b34" stroke="#003b34"></path>
        <path d="M445 556.1L493 508.3L447 514.3Z" fill="#0d1416" stroke="#0d1416"></path>
        <path d="M262 45.9L266 85.7L311 79.7Z" fill="#082428" stroke="#082428"></path>
        <path d="M260 510.3L317 508.3L305 467.4Z" fill="#014634" stroke="#014634"></path>
        <path d="M360 548.1L409 556.1L402 523.3Z" fill="#004034" stroke="#004034"></path>
        <path d="M711 223.3L681 221.3L715 248.1Z" fill="#014634" stroke="#014634"></path>
        <path d="M672 257.1L681 221.3L633 222.3Z" fill="#0b0d0e" stroke="#0b0d0e"></path>
        <path d="M623 466.4L583 421.6L589 468.4Z" fill="#014634" stroke="#014634"></path>
        <path d="M623 466.4L635 437.6L583 421.6Z" fill="#082428" stroke="#082428"></path>
        <path d="M352 38.9L315 48.9L350 77.7Z" fill="#0d1416" stroke="#0d1416"></path>
        <path d="M176 208.3L227 220.3L220 169.4Z" fill="#004034" stroke="#004034"></path>
        <path d="M176 208.3L227 250.1L227 220.3Z" fill="#00302f" stroke="#00302f"></path>
        <path d="M179 309L182 351.9L229 350.9Z" fill="#082428" stroke="#082428"></path>
        <path d="M229 386.7L221 436.6L261 420.6Z" fill="#0c1f22" stroke="#0c1f22"></path>
        <path d="M279 461.4L260 510.3L305 467.4Z" fill="#003b34" stroke="#003b34"></path>
        <path d="M171 391.7L182 351.9L138 377.7Z" fill="#0d1416" stroke="#0d1416"></path>
        <path d="M682 381.7L634 337.9L620 377.7Z" fill="#0d1416" stroke="#0d1416"></path>
        <path d="M715 248.1L681 221.3L672 257.1Z" fill="#003532" stroke="#003532"></path>
        <path d="M183 424.6L221 436.6L229 386.7Z" fill="#082428" stroke="#082428"></path>
        <path d="M582 49.9L539 37.9L547 91.7Z" fill="#082428" stroke="#082428"></path>
        <path d="M504 0L440 0L441 43.9Z" fill="#003532" stroke="#003532"></path>
        <path d="M173 174.4L176 208.3L220 169.4Z" fill="#042a2c" stroke="#042a2c"></path>
        <path d="M630 516.3L623 466.4L589 468.4Z" fill="#003532" stroke="#003532"></path>
        <path d="M635 437.6L682 381.7L620 377.7Z" fill="#014634" stroke="#014634"></path>
        <path d="M221 436.6L233 461.4L261 420.6Z" fill="#003532" stroke="#003532"></path>
        <path d="M678 433.6L682 381.7L635 437.6Z" fill="#004034" stroke="#004034"></path>
        <path d="M681 221.3L681 173.4L632 178.4Z" fill="#00302f" stroke="#00302f"></path>
        <path d="M622 75.7L582 49.9L586 87.7Z" fill="#082428" stroke="#082428"></path>
        <path d="M586 87.7L582 49.9L547 91.7Z" fill="#0d1416" stroke="#0d1416"></path>
        <path d="M711 223.3L681 173.4L681 221.3Z" fill="#0c1f22" stroke="#0c1f22"></path>
        <path d="M622 75.7L589 130.6L629 137.6Z" fill="#042a2c" stroke="#042a2c"></path>
        <path d="M409 556.1L445 556.1L402 523.3Z" fill="#082428" stroke="#082428"></path>
        <path d="M402 523.3L445 556.1L447 514.3Z" fill="#082428" stroke="#082428"></path>
        <path d="M360 548.1L402 523.3L356 505.3Z" fill="#042a2c" stroke="#042a2c"></path>
        <path d="M318 561.1L360 548.1L317 508.3Z" fill="#003b34" stroke="#003b34"></path>
        <path d="M317 508.3L360 548.1L356 505.3Z" fill="#042a2c" stroke="#042a2c"></path>
        <path d="M682 79.7L622 75.7L629 137.6Z" fill="#0d1416" stroke="#0d1416"></path>
        <path d="M187 132.6L220 169.4L234 123.6Z" fill="#0b0d0e" stroke="#0b0d0e"></path>
        <path d="M187 132.6L173 174.4L220 169.4Z" fill="#082428" stroke="#082428"></path>
        <path d="M176 208.3L143 223.3L173 261.1Z" fill="#014634" stroke="#014634"></path>
        <path d="M504 0L441 43.9L498 51.9Z" fill="#0b0d0e" stroke="#0b0d0e"></path>
        <path d="M414 37.9L396 0L352 38.9Z" fill="#004034" stroke="#004034"></path>
        <path d="M352 38.9L306 0L315 48.9Z" fill="#042a2c" stroke="#042a2c"></path>
        <path d="M504 0L498 51.9L539 37.9Z" fill="#042a2c" stroke="#042a2c"></path>
        <path d="M440 0L396 0L414 37.9Z" fill="#0c1f22" stroke="#0c1f22"></path>
        <path d="M547 506.3L577 521.3L589 468.4Z" fill="#00302f" stroke="#00302f"></path>
        <path d="M543 550.1L577 521.3L547 506.3Z" fill="#0b0d0e" stroke="#0b0d0e"></path>
        <path d="M262 45.9L229 82.7L266 85.7Z" fill="#0d191d" stroke="#0d191d"></path>
        <path d="M266 85.7L229 82.7L234 123.6Z" fill="#003b34" stroke="#003b34"></path>
        <path d="M262 45.9L311 79.7L315 48.9Z" fill="#003b34" stroke="#003b34"></path>
        <path d="M182 351.9L171 391.7L229 386.7Z" fill="#004034" stroke="#004034"></path>
        <path d="M221 436.6L188 471.4L233 461.4Z" fill="#003b34" stroke="#003b34"></path>
        <path d="M129 340.9L182 351.9L179 309Z" fill="#0d1416" stroke="#0d1416"></path>
        <path d="M137 306L179 309L173 261.1Z" fill="#014634" stroke="#014634"></path>
        <path d="M672 257.1L671 303L717 306Z" fill="#004034" stroke="#004034"></path>
        <path d="M715 248.1L672 257.1L717 306Z" fill="#042a2c" stroke="#042a2c"></path>
        <path d="M717 306L671 303L684 350.9Z" fill="#003532" stroke="#003532"></path>
        <path d="M183 91.7L187 132.6L234 123.6Z" fill="#0b0d0e" stroke="#0b0d0e"></path>
        <path d="M720 335.9L717 306L684 350.9Z" fill="#0c1f22" stroke="#0c1f22"></path>
        <path d="M231 512.3L260 510.3L233 461.4Z" fill="#0d1416" stroke="#0d1416"></path>
        <path d="M233 461.4L260 510.3L279 461.4Z" fill="#042a2c" stroke="#042a2c"></path>
        <path d="M171 391.7L183 424.6L229 386.7Z" fill="#042a2c" stroke="#042a2c"></path>
        <path d="M718 166.4L679 131.6L681 173.4Z" fill="#003b34" stroke="#003b34"></path>
        <path d="M681 173.4L679 131.6L629 137.6Z" fill="#0d1416" stroke="#0d1416"></path>
        <path d="M493 600L503 559.1L445 556.1Z" fill="#0c1f22" stroke="#0c1f22"></path>
        <path d="M445 556.1L503 559.1L493 508.3Z" fill="#082428" stroke="#082428"></path>
        <path d="M306 0L262 45.9L315 48.9Z" fill="#00302f" stroke="#00302f"></path>
        <path d="M548 0L504 0L539 37.9Z" fill="#0d191d" stroke="#0d191d"></path>
        <path d="M396 0L358 0L352 38.9Z" fill="#003532" stroke="#003532"></path>
        <path d="M683 473.4L678 433.6L635 437.6Z" fill="#003532" stroke="#003532"></path>
        <path d="M712 375.7L720 335.9L684 350.9Z" fill="#0d1416" stroke="#0d1416"></path>
        <path d="M683 473.4L635 437.6L623 466.4Z" fill="#00302f" stroke="#00302f"></path>
        <path d="M503 559.1L543 550.1L493 508.3Z" fill="#0b0d0e" stroke="#0b0d0e"></path>
        <path d="M712 375.7L684 350.9L682 381.7Z" fill="#0d191d" stroke="#0d191d"></path>
        <path d="M717 306L760 306L715 248.1Z" fill="#082428" stroke="#082428"></path>
        <path d="M144 171.4L176 208.3L173 174.4Z" fill="#0c1f22" stroke="#0c1f22"></path>
        <path d="M144 171.4L143 223.3L176 208.3Z" fill="#042a2c" stroke="#042a2c"></path>
        <path d="M130 263.1L137 306L173 261.1Z" fill="#014634" stroke="#014634"></path>
        <path d="M171 391.7L133 431.6L183 424.6Z" fill="#042a2c" stroke="#042a2c"></path>
        <path d="M718 428.6L712 375.7L682 381.7Z" fill="#003b34" stroke="#003b34"></path>
        <path d="M143 223.3L130 263.1L173 261.1Z" fill="#0d1416" stroke="#0d1416"></path>
        <path d="M622 75.7L625 46.9L582 49.9Z" fill="#004034" stroke="#004034"></path>
        <path d="M582 49.9L548 0L539 37.9Z" fill="#003b34" stroke="#003b34"></path>
        <path d="M682 79.7L625 46.9L622 75.7Z" fill="#003b34" stroke="#003b34"></path>
        <path d="M587 0L548 0L582 49.9Z" fill="#0b0d0e" stroke="#0b0d0e"></path>
        <path d="M268 551.1L318 561.1L317 508.3Z" fill="#00302f" stroke="#00302f"></path>
        <path d="M414 600L445 556.1L409 556.1Z" fill="#00302f" stroke="#00302f"></path>
        <path d="M414 600L448 600L445 556.1Z" fill="#00302f" stroke="#00302f"></path>
        <path d="M358 0L306 0L352 38.9Z" fill="#014634" stroke="#014634"></path>
        <path d="M188 471.4L231 512.3L233 461.4Z" fill="#00302f" stroke="#00302f"></path>
        <path d="M260 510.3L268 551.1L317 508.3Z" fill="#0b0d0e" stroke="#0b0d0e"></path>
        <path d="M134 136.6L173 174.4L187 132.6Z" fill="#0b0d0e" stroke="#0b0d0e"></path>
        <path d="M134 136.6L144 171.4L173 174.4Z" fill="#004034" stroke="#004034"></path>
        <path d="M143 223.3L96 211.3L130 263.1Z" fill="#0b0d0e" stroke="#0b0d0e"></path>
        <path d="M183 91.7L234 123.6L229 82.7Z" fill="#0d1416" stroke="#0d1416"></path>
        <path d="M711 223.3L718 166.4L681 173.4Z" fill="#0c1f22" stroke="#0c1f22"></path>
        <path d="M679 131.6L682 79.7L629 137.6Z" fill="#042a2c" stroke="#042a2c"></path>
        <path d="M768 216.3L718 166.4L711 223.3Z" fill="#0c1f22" stroke="#0c1f22"></path>
        <path d="M768 216.3L711 223.3L715 248.1Z" fill="#004034" stroke="#004034"></path>
        <path d="M99 379.7L129 340.9L83 333.9Z" fill="#003b34" stroke="#003b34"></path>
        <path d="M137 306L129 340.9L179 309Z" fill="#082428" stroke="#082428"></path>
        <path d="M183 424.6L188 471.4L221 436.6Z" fill="#014634" stroke="#014634"></path>
        <path d="M593 547.1L630 516.3L577 521.3Z" fill="#00302f" stroke="#00302f"></path>
        <path d="M577 521.3L630 516.3L589 468.4Z" fill="#0d1416" stroke="#0d1416"></path>
        <path d="M678 433.6L718 428.6L682 381.7Z" fill="#003b34" stroke="#003b34"></path>
        <path d="M129 340.9L138 377.7L182 351.9Z" fill="#00302f" stroke="#00302f"></path>
        <path d="M133 431.6L188 471.4L183 424.6Z" fill="#00302f" stroke="#00302f"></path>
        <path d="M181 48.9L183 91.7L229 82.7Z" fill="#003532" stroke="#003532"></path>
        <path d="M221 41.9L229 82.7L262 45.9Z" fill="#0b0d0e" stroke="#0b0d0e"></path>
        <path d="M543 550.1L593 547.1L577 521.3Z" fill="#0d1416" stroke="#0d1416"></path>
        <path d="M591 600L593 547.1L543 550.1Z" fill="#0b0d0e" stroke="#0b0d0e"></path>
        <path d="M718 166.4L710 128.6L679 131.6Z" fill="#004034" stroke="#004034"></path>
        <path d="M216 552.1L268 551.1L231 512.3Z" fill="#003532" stroke="#003532"></path>
        <path d="M231 512.3L268 551.1L260 510.3Z" fill="#042a2c" stroke="#042a2c"></path>
        <path d="M667 514.3L623 466.4L630 516.3Z" fill="#00302f" stroke="#00302f"></path>
        <path d="M667 514.3L683 473.4L623 466.4Z" fill="#00302f" stroke="#00302f"></path>
        <path d="M267 0L221 41.9L262 45.9Z" fill="#003532" stroke="#003532"></path>
        <path d="M631 0L587 0L625 46.9Z" fill="#003532" stroke="#003532"></path>
        <path d="M625 46.9L587 0L582 49.9Z" fill="#004034" stroke="#004034"></path>
        <path d="M710 128.6L682 79.7L679 131.6Z" fill="#003b34" stroke="#003b34"></path>
        <path d="M409 556.1L360 548.1L360 600Z" fill="#082428" stroke="#082428"></path>
        <path d="M414 600L409 556.1L360 600Z" fill="#0d191d" stroke="#0d191d"></path>
        <path d="M503 559.1L534 600L543 550.1Z" fill="#003532" stroke="#003532"></path>
        <path d="M360 600L360 548.1L318 561.1Z" fill="#082428" stroke="#082428"></path>
        <path d="M683 473.4L718 428.6L678 433.6Z" fill="#003532" stroke="#003532"></path>
        <path d="M772 345.9L760 306L720 335.9Z" fill="#003532" stroke="#003532"></path>
        <path d="M306 0L267 0L262 45.9Z" fill="#0c1f22" stroke="#0c1f22"></path>
        <path d="M448 600L493 600L445 556.1Z" fill="#003532" stroke="#003532"></path>
        <path d="M307 600L360 600L318 561.1Z" fill="#0d1416" stroke="#0d1416"></path>
        <path d="M772 345.9L720 335.9L712 375.7Z" fill="#003532" stroke="#003532"></path>
        <path d="M720 335.9L760 306L717 306Z" fill="#003b34" stroke="#003b34"></path>
        <path d="M718 166.4L770 133.6L710 128.6Z" fill="#042a2c" stroke="#042a2c"></path>
        <path d="M131 94.7L134 136.6L183 91.7Z" fill="#00302f" stroke="#00302f"></path>
        <path d="M183 91.7L134 136.6L187 132.6Z" fill="#0d1416" stroke="#0d1416"></path>
        <path d="M144 171.4L96 211.3L143 223.3Z" fill="#014634" stroke="#014634"></path>
        <path d="M633 551.1L630 516.3L593 547.1Z" fill="#003b34" stroke="#003b34"></path>
        <path d="M633 551.1L667 514.3L630 516.3Z" fill="#00302f" stroke="#00302f"></path>
        <path d="M683 473.4L720 472.4L718 428.6Z" fill="#0c1f22" stroke="#0c1f22"></path>
        <path d="M138 377.7L133 431.6L171 391.7Z" fill="#0c1f22" stroke="#0c1f22"></path>
        <path d="M188 471.4L186 509.3L231 512.3Z" fill="#004034" stroke="#004034"></path>
        <path d="M99 379.7L133 431.6L138 377.7Z" fill="#0d1416" stroke="#0d1416"></path>
        <path d="M144 515.3L186 509.3L188 471.4Z" fill="#042a2c" stroke="#042a2c"></path>
        <path d="M277 600L307 600L318 561.1Z" fill="#003b34" stroke="#003b34"></path>
        <path d="M493 600L534 600L503 559.1Z" fill="#00302f" stroke="#00302f"></path>
        <path d="M591 600L633 551.1L593 547.1Z" fill="#0d191d" stroke="#0d191d"></path>
        <path d="M182 0L181 48.9L221 41.9Z" fill="#0c1f22" stroke="#0c1f22"></path>
        <path d="M221 41.9L181 48.9L229 82.7Z" fill="#014634" stroke="#014634"></path>
        <path d="M774 259.1L768 216.3L715 248.1Z" fill="#082428" stroke="#082428"></path>
        <path d="M710 128.6L720 78.7L682 79.7Z" fill="#042a2c" stroke="#042a2c"></path>
        <path d="M95 176.4L96 211.3L144 171.4Z" fill="#0d191d" stroke="#0d191d"></path>
        <path d="M83 333.9L129 340.9L137 306Z" fill="#0b0d0e" stroke="#0b0d0e"></path>
        <path d="M129 340.9L99 379.7L138 377.7Z" fill="#0b0d0e" stroke="#0b0d0e"></path>
        <path d="M760 306L774 259.1L715 248.1Z" fill="#0d1416" stroke="#0d1416"></path>
        <path d="M670 0L631 0L625 46.9Z" fill="#0b0d0e" stroke="#0b0d0e"></path>
        <path d="M277 600L318 561.1L268 551.1Z" fill="#0c1f22" stroke="#0c1f22"></path>
        <path d="M772 394.7L772 345.9L712 375.7Z" fill="#00302f" stroke="#00302f"></path>
        <path d="M818 305L815 253.1L774 259.1Z" fill="#0d1416" stroke="#0d1416"></path>
        <path d="M772 394.7L712 375.7L718 428.6Z" fill="#082428" stroke="#082428"></path>
        <path d="M720 515.3L683 473.4L667 514.3Z" fill="#0d1416" stroke="#0d1416"></path>
        <path d="M720 515.3L720 472.4L683 473.4Z" fill="#0b0d0e" stroke="#0b0d0e"></path>
        <path d="M83 301L137 306L130 263.1Z" fill="#004034" stroke="#004034"></path>
        <path d="M186 509.3L216 552.1L231 512.3Z" fill="#082428" stroke="#082428"></path>
        <path d="M80 256.1L83 301L130 263.1Z" fill="#00302f" stroke="#00302f"></path>
        <path d="M768 216.3L764 171.4L718 166.4Z" fill="#00302f" stroke="#00302f"></path>
        <path d="M682 79.7L684 32.9L625 46.9Z" fill="#003b34" stroke="#003b34"></path>
        <path d="M770 133.6L764 171.4L801 169.4Z" fill="#0d191d" stroke="#0d191d"></path>
        <path d="M755 92.7L720 78.7L710 128.6Z" fill="#0b0d0e" stroke="#0b0d0e"></path>
        <path d="M90 129.6L95 176.4L134 136.6Z" fill="#014634" stroke="#014634"></path>
        <path d="M134 136.6L95 176.4L144 171.4Z" fill="#00302f" stroke="#00302f"></path>
        <path d="M96 211.3L80 256.1L130 263.1Z" fill="#00302f" stroke="#00302f"></path>
        <path d="M51 222.3L80 256.1L96 211.3Z" fill="#0c1f22" stroke="#0c1f22"></path>
        <path d="M38 336.9L83 333.9L83 301Z" fill="#004034" stroke="#004034"></path>
        <path d="M83 301L83 333.9L137 306Z" fill="#0d191d" stroke="#0d191d"></path>
        <path d="M144 43.9L131 94.7L183 91.7Z" fill="#0b0d0e" stroke="#0b0d0e"></path>
        <path d="M720 78.7L684 32.9L682 79.7Z" fill="#00302f" stroke="#00302f"></path>
        <path d="M267 0L216 0L221 41.9Z" fill="#004034" stroke="#004034"></path>
        <path d="M181 48.9L144 43.9L183 91.7Z" fill="#003532" stroke="#003532"></path>
        <path d="M221 600L277 600L268 551.1Z" fill="#003532" stroke="#003532"></path>
        <path d="M534 600L591 600L543 550.1Z" fill="#0c1f22" stroke="#0c1f22"></path>
        <path d="M633 551.1L676 553.1L667 514.3Z" fill="#0b0d0e" stroke="#0b0d0e"></path>
        <path d="M768 418.6L772 394.7L718 428.6Z" fill="#003532" stroke="#003532"></path>
        <path d="M815 253.1L805 219.3L774 259.1Z" fill="#014634" stroke="#014634"></path>
        <path d="M83 426.6L133 431.6L99 379.7Z" fill="#0d1416" stroke="#0d1416"></path>
        <path d="M83 426.6L126 469.4L133 431.6Z" fill="#042a2c" stroke="#042a2c"></path>
        <path d="M133 431.6L126 469.4L188 471.4Z" fill="#014634" stroke="#014634"></path>
        <path d="M186 509.3L179 556.1L216 552.1Z" fill="#003b34" stroke="#003b34"></path>
        <path d="M759 463.4L768 418.6L718 428.6Z" fill="#0d191d" stroke="#0d191d"></path>
        <path d="M635 600L676 553.1L633 551.1Z" fill="#004034" stroke="#004034"></path>
        <path d="M720 472.4L759 463.4L718 428.6Z" fill="#082428" stroke="#082428"></path>
        <path d="M718 0L670 0L684 32.9Z" fill="#004034" stroke="#004034"></path>
        <path d="M684 32.9L670 0L625 46.9Z" fill="#00302f" stroke="#00302f"></path>
        <path d="M764 171.4L770 133.6L718 166.4Z" fill="#0b0d0e" stroke="#0b0d0e"></path>
        <path d="M720 78.7L723 33.9L684 32.9Z" fill="#042a2c" stroke="#042a2c"></path>
        <path d="M801 169.4L764 171.4L768 216.3Z" fill="#0b0d0e" stroke="#0b0d0e"></path>
        <path d="M126 469.4L144 515.3L188 471.4Z" fill="#00302f" stroke="#00302f"></path>
        <path d="M216 552.1L221 600L268 551.1Z" fill="#003532" stroke="#003532"></path>
        <path d="M182 0L144 43.9L181 48.9Z" fill="#0b0d0e" stroke="#0b0d0e"></path>
        <path d="M131 94.7L90 129.6L134 136.6Z" fill="#0c1f22" stroke="#0c1f22"></path>
        <path d="M676 553.1L720 515.3L667 514.3Z" fill="#014634" stroke="#014634"></path>
        <path d="M95 90.7L90 129.6L131 94.7Z" fill="#082428" stroke="#082428"></path>
        <path d="M38 261.1L50 290L80 256.1Z" fill="#003532" stroke="#003532"></path>
        <path d="M770 133.6L755 92.7L710 128.6Z" fill="#004034" stroke="#004034"></path>
        <path d="M144 515.3L179 556.1L186 509.3Z" fill="#0d191d" stroke="#0d191d"></path>
        <path d="M216 0L182 0L221 41.9Z" fill="#0d191d" stroke="#0d191d"></path>
        <path d="M720 515.3L759 463.4L720 472.4Z" fill="#0d191d" stroke="#0d191d"></path>
        <path d="M47 388.7L83 426.6L99 379.7Z" fill="#0d191d" stroke="#0d191d"></path>
        <path d="M126 469.4L80 505.3L144 515.3Z" fill="#00302f" stroke="#00302f"></path>
        <path d="M47 388.7L99 379.7L83 333.9Z" fill="#003b34" stroke="#003b34"></path>
        <path d="M774 259.1L760 306L818 305Z" fill="#0d191d" stroke="#0d191d"></path>
        <path d="M774 259.1L805 219.3L768 216.3Z" fill="#003b34" stroke="#003b34"></path>
        <path d="M811 85.7L758 48.9L755 92.7Z" fill="#0d191d" stroke="#0d191d"></path>
        <path d="M760 306L772 345.9L818 305Z" fill="#0d191d" stroke="#0d191d"></path>
        <path d="M676 553.1L729 561.1L720 515.3Z" fill="#0c1f22" stroke="#0c1f22"></path>
        <path d="M591 600L635 600L633 551.1Z" fill="#0d191d" stroke="#0d191d"></path>
        <path d="M758 48.9L723 33.9L720 78.7Z" fill="#003b34" stroke="#003b34"></path>
        <path d="M51 222.3L96 211.3L48 170.4Z" fill="#004034" stroke="#004034"></path>
        <path d="M80 256.1L50 290L83 301Z" fill="#0c1f22" stroke="#0c1f22"></path>
        <path d="M179 556.1L221 600L216 552.1Z" fill="#003532" stroke="#003532"></path>
        <path d="M811 345.9L772 345.9L772 394.7Z" fill="#003b34" stroke="#003b34"></path>
        <path d="M811 345.9L772 394.7L814 392.7Z" fill="#0d1416" stroke="#0d1416"></path>
        <path d="M48 170.4L96 211.3L95 176.4Z" fill="#003b34" stroke="#003b34"></path>
        <path d="M814 392.7L772 394.7L768 418.6Z" fill="#0c1f22" stroke="#0c1f22"></path>
        <path d="M805 219.3L801 169.4L768 216.3Z" fill="#004034" stroke="#004034"></path>
        <path d="M755 92.7L758 48.9L720 78.7Z" fill="#00302f" stroke="#00302f"></path>
        <path d="M817 119.6L801 169.4L849 131.6Z" fill="#042a2c" stroke="#042a2c"></path>
        <path d="M144 43.9L95 90.7L131 94.7Z" fill="#042a2c" stroke="#042a2c"></path>
        <path d="M90 129.6L48 170.4L95 176.4Z" fill="#042a2c" stroke="#042a2c"></path>
        <path d="M92 37.9L95 90.7L144 43.9Z" fill="#003532" stroke="#003532"></path>
        <path d="M811 345.9L818 305L772 345.9Z" fill="#082428" stroke="#082428"></path>
        <path d="M0 291L38 261.1L0 252.1Z" fill="#0d1416" stroke="#0d1416"></path>
        <path d="M51 222.3L38 261.1L80 256.1Z" fill="#014634" stroke="#014634"></path>
        <path d="M50 290L38 336.9L83 301Z" fill="#0d191d" stroke="#0d191d"></path>
        <path d="M0 291L38 336.9L50 290Z" fill="#003b34" stroke="#003b34"></path>
        <path d="M46 462.4L87 479.4L83 426.6Z" fill="#00302f" stroke="#00302f"></path>
        <path d="M83 426.6L87 479.4L126 469.4Z" fill="#003532" stroke="#003532"></path>
        <path d="M129 566.1L173 600L179 556.1Z" fill="#0b0d0e" stroke="#0b0d0e"></path>
        <path d="M179 556.1L173 600L221 600Z" fill="#004034" stroke="#004034"></path>
        <path d="M51 134.6L48 170.4L90 129.6Z" fill="#0d1416" stroke="#0d1416"></path>
        <path d="M814 435.6L768 418.6L759 463.4Z" fill="#0d191d" stroke="#0d191d"></path>
        <path d="M814 435.6L814 392.7L768 418.6Z" fill="#004034" stroke="#004034"></path>
        <path d="M811 345.9L846 335.9L818 305Z" fill="#082428" stroke="#082428"></path>
        <path d="M38 336.9L47 388.7L83 333.9Z" fill="#0d191d" stroke="#0d191d"></path>
        <path d="M811 85.7L755 92.7L770 133.6Z" fill="#003b34" stroke="#003b34"></path>
        <path d="M723 33.9L718 0L684 32.9Z" fill="#00302f" stroke="#00302f"></path>
        <path d="M760 0L718 0L723 33.9Z" fill="#0c1f22" stroke="#0c1f22"></path>
        <path d="M635 600L674 600L676 553.1Z" fill="#003532" stroke="#003532"></path>
        <path d="M720 515.3L772 520.3L759 463.4Z" fill="#003b34" stroke="#003b34"></path>
        <path d="M182 0L140 0L144 43.9Z" fill="#003532" stroke="#003532"></path>
        <path d="M44 89.7L51 134.6L90 129.6Z" fill="#00302f" stroke="#00302f"></path>
        <path d="M47 388.7L53 428.6L83 426.6Z" fill="#003b34" stroke="#003b34"></path>
        <path d="M46 462.4L53 428.6L0 423.6Z" fill="#0d1416" stroke="#0d1416"></path>
        <path d="M44 89.7L90 129.6L95 90.7Z" fill="#0d191d" stroke="#0d191d"></path>
        <path d="M0 252.1L38 261.1L51 222.3Z" fill="#0c1f22" stroke="#0c1f22"></path>
        <path d="M722 600L729 561.1L676 553.1Z" fill="#042a2c" stroke="#042a2c"></path>
        <path d="M129 566.1L179 556.1L144 515.3Z" fill="#014634" stroke="#014634"></path>
        <path d="M813 479.4L814 435.6L759 463.4Z" fill="#004034" stroke="#004034"></path>
        <path d="M849 378.7L846 335.9L811 345.9Z" fill="#042a2c" stroke="#042a2c"></path>
        <path d="M93 558.1L129 566.1L144 515.3Z" fill="#0b0d0e" stroke="#0b0d0e"></path>
        <path d="M80 505.3L126 469.4L87 479.4Z" fill="#0d1416" stroke="#0d1416"></path>
        <path d="M140 0L92 37.9L144 43.9Z" fill="#0d1416" stroke="#0d1416"></path>
        <path d="M756 554.1L772 520.3L720 515.3Z" fill="#014634" stroke="#014634"></path>
        <path d="M801 169.4L817 119.6L770 133.6Z" fill="#0b0d0e" stroke="#0b0d0e"></path>
        <path d="M758 48.9L760 0L723 33.9Z" fill="#0d1416" stroke="#0d1416"></path>
        <path d="M849 222.3L801 169.4L805 219.3Z" fill="#0b0d0e" stroke="#0b0d0e"></path>
        <path d="M849 222.3L805 219.3L815 253.1Z" fill="#00302f" stroke="#00302f"></path>
        <path d="M52 511.3L80 505.3L87 479.4Z" fill="#003b34" stroke="#003b34"></path>
        <path d="M849 378.7L811 345.9L814 392.7Z" fill="#0d1416" stroke="#0d1416"></path>
        <path d="M855 258.1L849 222.3L815 253.1Z" fill="#082428" stroke="#082428"></path>
        <path d="M855 258.1L815 253.1L818 305Z" fill="#0d1416" stroke="#0d1416"></path>
        <path d="M861 305L855 258.1L818 305Z" fill="#004034" stroke="#004034"></path>
        <path d="M772 600L756 554.1L729 561.1Z" fill="#0b0d0e" stroke="#0b0d0e"></path>
        <path d="M729 561.1L756 554.1L720 515.3Z" fill="#0b0d0e" stroke="#0b0d0e"></path>
        <path d="M856 426.6L814 392.7L814 435.6Z" fill="#0d191d" stroke="#0d191d"></path>
        <path d="M859 85.7L811 85.7L817 119.6Z" fill="#0c1f22" stroke="#0c1f22"></path>
        <path d="M817 119.6L811 85.7L770 133.6Z" fill="#003b34" stroke="#003b34"></path>
        <path d="M0 423.6L53 428.6L47 388.7Z" fill="#004034" stroke="#004034"></path>
        <path d="M53 428.6L46 462.4L83 426.6Z" fill="#00302f" stroke="#00302f"></path>
        <path d="M856 426.6L849 378.7L814 392.7Z" fill="#003532" stroke="#003532"></path>
        <path d="M846 335.9L861 305L818 305Z" fill="#014634" stroke="#014634"></path>
        <path d="M813 479.4L759 463.4L772 520.3Z" fill="#0b0d0e" stroke="#0b0d0e"></path>
        <path d="M900 302L861 305L900 351.9Z" fill="#082428" stroke="#082428"></path>
        <path d="M812 520.3L813 479.4L772 520.3Z" fill="#082428" stroke="#082428"></path>
        <path d="M809 0L760 0L758 48.9Z" fill="#082428" stroke="#082428"></path>
        <path d="M46 43.9L44 89.7L95 90.7Z" fill="#00302f" stroke="#00302f"></path>
        <path d="M0 209.3L51 222.3L48 170.4Z" fill="#003532" stroke="#003532"></path>
        <path d="M38 261.1L0 291L50 290Z" fill="#014634" stroke="#014634"></path>
        <path d="M38 336.9L0 350.9L47 388.7Z" fill="#0c1f22" stroke="#0c1f22"></path>
        <path d="M0 252.1L51 222.3L0 209.3Z" fill="#003532" stroke="#003532"></path>
        <path d="M0 209.3L48 170.4L0 166.4Z" fill="#003b34" stroke="#003b34"></path>
        <path d="M674 600L722 600L676 553.1Z" fill="#042a2c" stroke="#042a2c"></path>
        <path d="M861 475.4L814 435.6L813 479.4Z" fill="#014634" stroke="#014634"></path>
        <path d="M0 166.4L48 170.4L51 134.6Z" fill="#00302f" stroke="#00302f"></path>
        <path d="M0 291L0 350.9L38 336.9Z" fill="#0d191d" stroke="#0d191d"></path>
        <path d="M80 505.3L93 558.1L144 515.3Z" fill="#014634" stroke="#014634"></path>
        <path d="M129 566.1L131 600L173 600Z" fill="#0c1f22" stroke="#0c1f22"></path>
        <path d="M52 511.3L93 558.1L80 505.3Z" fill="#042a2c" stroke="#042a2c"></path>
        <path d="M99 600L131 600L129 566.1Z" fill="#0c1f22" stroke="#0c1f22"></path>
        <path d="M860 164.4L849 131.6L801 169.4Z" fill="#00302f" stroke="#00302f"></path>
        <path d="M811 85.7L818 51.9L758 48.9Z" fill="#014634" stroke="#014634"></path>
        <path d="M860 164.4L801 169.4L849 222.3Z" fill="#0d191d" stroke="#0d191d"></path>
        <path d="M860 164.4L849 222.3L900 206.3Z" fill="#004034" stroke="#004034"></path>
        <path d="M900 264.1L849 222.3L855 258.1Z" fill="#0c1f22" stroke="#0c1f22"></path>
        <path d="M0 480.4L52 511.3L46 462.4Z" fill="#042a2c" stroke="#042a2c"></path>
        <path d="M46 462.4L52 511.3L87 479.4Z" fill="#014634" stroke="#014634"></path>
        <path d="M140 0L85 0L92 37.9Z" fill="#042a2c" stroke="#042a2c"></path>
        <path d="M92 37.9L46 43.9L95 90.7Z" fill="#082428" stroke="#082428"></path>
        <path d="M0 350.9L0 389.7L47 388.7Z" fill="#014634" stroke="#014634"></path>
        <path d="M0 121.6L0 166.4L51 134.6Z" fill="#0d191d" stroke="#0d191d"></path>
        <path d="M0 121.6L51 134.6L44 89.7Z" fill="#014634" stroke="#014634"></path>
        <path d="M859 85.7L818 51.9L811 85.7Z" fill="#004034" stroke="#004034"></path>
        <path d="M812 520.3L772 520.3L812 563.1Z" fill="#003b34" stroke="#003b34"></path>
        <path d="M861 475.4L856 426.6L814 435.6Z" fill="#003b34" stroke="#003b34"></path>
        <path d="M900 302L900 264.1L861 305Z" fill="#004034" stroke="#004034"></path>
        <path d="M812 563.1L772 520.3L756 554.1Z" fill="#0d1416" stroke="#0d1416"></path>
        <path d="M51 0L46 43.9L92 37.9Z" fill="#0d1416" stroke="#0d1416"></path>
        <path d="M0 389.7L0 423.6L47 388.7Z" fill="#082428" stroke="#082428"></path>
        <path d="M0 88.7L0 121.6L44 89.7Z" fill="#0c1f22" stroke="#0c1f22"></path>
        <path d="M37 600L99 600L93 558.1Z" fill="#042a2c" stroke="#042a2c"></path>
        <path d="M93 558.1L99 600L129 566.1Z" fill="#082428" stroke="#082428"></path>
        <path d="M38 551.1L93 558.1L52 511.3Z" fill="#0c1f22" stroke="#0c1f22"></path>
        <path d="M722 600L772 600L729 561.1Z" fill="#0b0d0e" stroke="#0b0d0e"></path>
        <path d="M861 305L900 264.1L855 258.1Z" fill="#00302f" stroke="#00302f"></path>
        <path d="M900 119.6L859 85.7L849 131.6Z" fill="#0c1f22" stroke="#0c1f22"></path>
        <path d="M861 305L846 335.9L900 351.9Z" fill="#003b34" stroke="#003b34"></path>
        <path d="M900 351.9L846 335.9L849 378.7Z" fill="#004034" stroke="#004034"></path>
        <path d="M900 119.6L849 131.6L860 164.4Z" fill="#004034" stroke="#004034"></path>
        <path d="M849 131.6L859 85.7L817 119.6Z" fill="#003532" stroke="#003532"></path>
        <path d="M818 51.9L809 0L758 48.9Z" fill="#004034" stroke="#004034"></path>
        <path d="M845 32.9L809 0L818 51.9Z" fill="#042a2c" stroke="#042a2c"></path>
        <path d="M0 41.9L0 88.7L46 43.9Z" fill="#0b0d0e" stroke="#0b0d0e"></path>
        <path d="M46 43.9L0 88.7L44 89.7Z" fill="#0d1416" stroke="#0d1416"></path>
        <path d="M855 517.3L861 475.4L813 479.4Z" fill="#0c1f22" stroke="#0c1f22"></path>
        <path d="M900 385.7L900 351.9L849 378.7Z" fill="#00302f" stroke="#00302f"></path>
        <path d="M855 517.3L813 479.4L812 520.3Z" fill="#042a2c" stroke="#042a2c"></path>
        <path d="M85 0L51 0L92 37.9Z" fill="#042a2c" stroke="#042a2c"></path>
        <path d="M900 385.7L849 378.7L856 426.6Z" fill="#0b0d0e" stroke="#0b0d0e"></path>
        <path d="M900 264.1L900 206.3L849 222.3Z" fill="#0d1416" stroke="#0d1416"></path>
        <path d="M772 600L812 563.1L756 554.1Z" fill="#0d1416" stroke="#0d1416"></path>
        <path d="M0 423.6L0 480.4L46 462.4Z" fill="#00302f" stroke="#00302f"></path>
        <path d="M0 510.3L38 551.1L52 511.3Z" fill="#0d1416" stroke="#0d1416"></path>
        <path d="M900 429.6L900 385.7L856 426.6Z" fill="#0d191d" stroke="#0d191d"></path>
        <path d="M856 0L845 32.9L900 50.9Z" fill="#003b34" stroke="#003b34"></path>
        <path d="M859 85.7L845 32.9L818 51.9Z" fill="#0b0d0e" stroke="#0b0d0e"></path>
        <path d="M900 206.3L900 162.4L860 164.4Z" fill="#0b0d0e" stroke="#0b0d0e"></path>
        <path d="M851 565.1L855 517.3L812 520.3Z" fill="#042a2c" stroke="#042a2c"></path>
        <path d="M861 475.4L900 429.6L856 426.6Z" fill="#014634" stroke="#014634"></path>
        <path d="M772 600L800 600L812 563.1Z" fill="#042a2c" stroke="#042a2c"></path>
        <path d="M812 563.1L851 565.1L812 520.3Z" fill="#0d191d" stroke="#0d191d"></path>
        <path d="M0 480.4L0 510.3L52 511.3Z" fill="#0d1416" stroke="#0d1416"></path>
        <path d="M900 469.4L900 429.6L861 475.4Z" fill="#082428" stroke="#082428"></path>
        <path d="M0 0L0 41.9L46 43.9Z" fill="#0d191d" stroke="#0d191d"></path>
        <path d="M900 162.4L900 119.6L860 164.4Z" fill="#082428" stroke="#082428"></path>
        <path d="M900 504.3L861 475.4L855 517.3Z" fill="#00302f" stroke="#00302f"></path>
        <path d="M900 504.3L900 469.4L861 475.4Z" fill="#0d1416" stroke="#0d1416"></path>
        <path d="M858 600L851 565.1L812 563.1Z" fill="#004034" stroke="#004034"></path>
        <path d="M38 551.1L37 600L93 558.1Z" fill="#00302f" stroke="#00302f"></path>
        <path d="M0 553.1L37 600L38 551.1Z" fill="#082428" stroke="#082428"></path>
        <path d="M900 50.9L845 32.9L859 85.7Z" fill="#042a2c" stroke="#042a2c"></path>
        <path d="M845 32.9L856 0L809 0Z" fill="#0d1416" stroke="#0d1416"></path>
        <path d="M900 119.6L900 81.7L859 85.7Z" fill="#003532" stroke="#003532"></path>
        <path d="M0 510.3L0 553.1L38 551.1Z" fill="#0c1f22" stroke="#0c1f22"></path>
        <path d="M51 0L0 0L46 43.9Z" fill="#004034" stroke="#004034"></path>
        <path d="M900 566.1L900 504.3L855 517.3Z" fill="#014634" stroke="#014634"></path>
        <path d="M900 81.7L900 50.9L859 85.7Z" fill="#0d191d" stroke="#0d191d"></path>
        <path d="M800 600L858 600L812 563.1Z" fill="#042a2c" stroke="#042a2c"></path>
        <path d="M851 565.1L900 566.1L855 517.3Z" fill="#0b0d0e" stroke="#0b0d0e"></path>
        <path d="M0 553.1L0 600L37 600Z" fill="#00302f" stroke="#00302f"></path>
        <path d="M900 50.9L900 0L856 0Z" fill="#0b0d0e" stroke="#0b0d0e"></path>
        <path d="M858 600L900 566.1L851 565.1Z" fill="#0c1f22" stroke="#0c1f22"></path>
        <path d="M858 600L900 600L900 566.1Z" fill="#0d1416" stroke="#0d1416"></path>
    </g>
</svg>